<?xml version="1.0" encoding="UTF-8"?>
<svg id="Lager_1" xmlns="http://www.w3.org/2000/svg" version="1.1" viewBox="0 0 394 169">
  <!-- Generator: Adobe Illustrator 29.4.0, SVG Export Plug-In . SVG Version: 2.1.0 Build 152)  -->
  <defs>
    <style>
      .st0 {
        fill: none;
      }

      .st1, .st2, .st3 {
        fill: #f9dfce;
      }

      .st2, .st4, .st5, .st3, .st6 {
        isolation: isolate;
      }

      .st2, .st6 {
        font-family: ArialMT, Arial;
        font-size: 20px;
        letter-spacing: .3em;
      }

      .st7 {
        fill: #ffa4d4;
      }

      .st8 {
        fill: #3a3a3a;
      }

      .st5, .st3 {
        font-family: Arial-BoldMT, Arial;
        font-size: 35px;
        font-weight: 700;
      }

      .st9 {
        fill: #e0610a;
      }
    </style>
  </defs>
  <g id="OBJECTS">
    <circle class="st1" cx="70.9" cy="87.5" r="59.9"/>
    <path class="st7" d="M131.8,47.3c-.4.6-.4,1.4,0,2,.3.6,1,1,1.7,1h.3c-.9,1.2-3,3.1-5.2,4.2-2.1,1.1-2.6,1.3-3.2,1.5-.7-.7-1.5-1.4-2.2-2.2s-1.4-1.6-2-2.4c.2-.6.5-1.1,1.8-3.1s3.4-4,4.7-4.8v.5c0,.7.2,1.5.8,1.9s1.4.4,2,0c1.2-.7,2.1-1,2.6-1.1-.1.5-.5,1.3-1.2,2.5M117,59.4c0-1.7.5-3.4,1.7-4.8.5.6,1,1.2,1.6,1.8.5.6,1.1,1.2,1.7,1.7-1.5,1-3.2,1.5-4.9,1.3h0ZM84.2,77.4c-5.3-2.3-7.7-2.7-10.5-3.3-1.2-.2-2.5-.4-4.1-.9,2.6-4,4.8-8.8,2.4-14.7-1.5-3.7-1.8-7.4-1.3-10.2v-.3c.3-1.4.8-2.5,1.4-3.2.5-.5,1-.7,1.7-.6,2.1.3,5.4,3.1,8.1,8.7.7,1.5,1.4,3.2,2,5,.5,1.3.7,2.4,1,3.5.7,2.7,1.4,5.1,4.2,10,.9,1.5,1.6,3.2,2,4.8-1.8-2-3.8-3.8-6-5.5-.5-.4-1.3-.3-1.7.2-.4.5-.3,1.3.2,1.7,2.6,2,5,4.3,7.1,6.9-2-.3-4.3-1-6.8-2.1h.3ZM65.7,72.1c-.3,0-.6-.2-.9-.3-5.8-2.2-8.8-5.3-9.4-7.3-.4-1.2.6-1.9.7-2,1.8-1.6,6.5-2.5,12.7-1.4,1.1,4.1-.9,7.6-3.1,11ZM58.6,48.8c1.2-1.4,4.4-1.3,8.1.2-.3,2.5,0,5.3.7,8-2.6-.3-5.1-.3-7.2,0-2.2-3.6-2.9-6.8-1.6-8.2ZM121.8,82.2l1.1-.3c1.4-.4,2.8-.6,4.2-.5-1.6,3.4-4.8,6.1-8.7,7.2-1.9.5-3.4.9-5,.9,1.5-3.4,4.6-6.1,8.4-7.3ZM125.9,92.1l-1.1.3c-3.3.9-6.7.6-9.5-.7,1.2-.2,2.4-.5,3.7-.8,2.5-.7,4.7-2,6.5-3.6,1.7-1.6,3.1-3.5,3.9-5.6,1.9.4,3.6,1.2,5.1,2.4-1.3,3.8-4.6,6.9-8.8,8.1h.2ZM72.2,98.1c-2-.5-3.7-1.9-4.6-3.9h0v-.2l-.2-.4c-.9-2-1-4.2-.2-6,2,.5,3.7,1.9,4.6,3.9l.3.6c.9,2,1,4.2.2,6h-.1ZM81.6,107.7c-1.5,1.5-3.5,2.3-5.6,2.1h-.7c-2.2-.2-4.1-1.3-5.3-3,1.4-1.4,3.5-2.2,5.7-2,0,0,1.1,0,1.3,0h0c1.9.3,3.5,1.3,4.6,2.7h0ZM52.2,84.9c-2.4.5-5,0-7-1.8l-.6-.5c-2-1.7-3.2-4.1-3.2-6.5,2.4-.5,5,0,7,1.8l.6.5c2,1.7,3.2,4.1,3.2,6.5ZM57.3,98c-.2,0-.4,0-.6,0-2.1.5-4.3,0-5.9-1.2.9-1.8,2.7-3.1,4.9-3.6h.6c2.1-.5,4,.3,5.8,1.4-1,1.7-2.7,2.9-4.8,3.4h0ZM93.4,43.7c-.6-.3-1.3-.6-2.1-1,2.4-2.3,4.6-5.4,4-9.9-.6-4.5,1-8.2,2.4-9.2.3-.2.5-.2.9,0,1.2.5,3,3,3.9,7.2.2,1.1.4,2.5.5,3.8,0,1,0,1.8,0,2.6,0,2,0,3.9,1.2,8,.2.6.3,1.2.4,1.7-.7-1.1-1.5-2.2-2.3-3.3-.4-.5-1.2-.6-1.7-.2-.5.4-.6,1.1-.2,1.7,1.2,1.6,2.3,3.2,3.2,5-1-.5-2.1-1.3-3.3-2.2-3.4-2.6-5-3.4-7-4.3h0ZM87.8,40.7s0,0-.2,0c-3.6-2.5-5.2-5.1-5.1-6.4,0-.3,0-.5.3-.6h.2c1.2-.9,4.6-.8,8.6,1,0,2.6-1.7,4.4-3.7,6.2h-.1ZM87.4,24.1c.7-.5,2.5-.2,4.8,1.3-.5,1.5-.8,3.1-.8,4.9-1.4-.5-2.8-.9-4.2-1.1-.8-2.7-.5-4.6.3-5.2h-.1ZM136.1,42c-.8-.9-2.3-1.6-5-.6-.2-.4-.4-.8-.7-1.1-.6-.7-1.5-1-2.4-.9-3.1.3-7,4.8-8.3,6.8-1.6,2.5-1.9,3.1-2.2,4.1v.2c-.2.2-.4.3-.6.5-2.6,2.4-4,5.9-3.6,9.2-.9.9-1.8,1.8-2.6,2.8-.3-3.8-1.3-7.3-2.3-10,.6-2.7.4-5.8-.4-8.8-1-3.6-1-5.1-1-7s0-1.7,0-2.8c0-1.6-.3-3.1-.6-4.3-1.1-5.1-3.4-8.9-6.2-10-1.5-.6-3.1-.5-4.4.4-.6.4-1.1.9-1.6,1.5-3.3-2.1-6.5-2.6-8.7-1.1-2.3,1.5-3,4.6-2.1,8.4-.9.2-1.7.5-2.4.9-1.4.9-2.1,2.3-2.1,3.9,0,3,2.5,6.6,6.8,9.6.5.4,1.1.7,1.6,1q.3.2,0,0c2.1,1.3,3.5,1.9,4.7,2.5,1.8.8,3.2,1.5,6.2,3.8,2.5,2,4.8,3.2,6.9,3.8,1.2,3.5,2.4,8.3,1.9,13.3-3.8,5.8-6.2,12.4-7.1,19.1-1.1-2.2-2.3-4.4-3.7-6.4,0-3.8-1.3-7.8-3.4-11.3-2.6-4.5-3.1-6.6-3.8-9.2-.3-1.1-.6-2.2-1.1-3.7-.7-2-1.4-3.9-2.2-5.5-3.1-6.2-7.2-10.3-11-10.8-2-.3-3.8.4-5.1,1.9-.7.8-1.3,1.8-1.7,3-5.1-1.9-9.5-1.6-11.8,1-2.4,2.7-2.2,7,.5,11.8-1.4.5-2.5,1.3-3.3,2.2-1.3,1.5-1.8,3.3-1.3,5.3.9,3.8,5.3,7.5,11.8,10,.8.3,1.6.6,2.4.8h0c3.2,1,5.2,1.3,7,1.7,2.7.5,4.8.9,9.7,3,4,1.8,7.4,2.6,10.5,2.6,3.4,5,5.6,10.8,6.6,16.8,0,.3.2,1.4.2,1.5.6,3.5,1.6,6.9,3,10.1,0,0,1.2,2.6,1.8,3.8,1.8,3.3,3.9,6.4,6.5,9.2l.6.7-26.5-19c-1.5-2.7-4.1-4.7-7.4-5.3l-2.3-1.7c1.3-2.9,1.2-6.3-.2-9.3l-.3-.6c-1.7-3.6-5.2-6-9-6.3-.7,0-1.3.3-1.7.8-1.2,1.8-1.8,3.8-1.8,6l-6.7-4.8c.2-3.8-1.5-7.6-4.6-10.1l-.6-.5c-3.4-2.8-8-3.6-12-2.1-.6.2-1.1.8-1.2,1.5-.7,4.2,1,8.5,4.5,11.3l.6.5c3.1,2.6,7.3,3.5,10.9,2.4l1.4,1h-.3c-3.9.8-7,3.6-8.2,7.2-.2.6,0,1.4.4,1.9,2.6,2.8,6.6,4.1,10.4,3.2.2,0,.5,0,.7,0,2.8-.6,5.3-2.3,6.8-4.5,1.5,2.2,3.7,3.8,6.1,4.5-2,.8-3.7,2.1-5,3.9-.4.6-.4,1.3-.2,1.9,1.6,3.5,5.1,5.8,9.1,6.1h.7c3.2.3,6.3-.9,8.6-3.1l40,28.8,15.4,17c.7.8,1.9.9,2.7.1.8-.7.8-1.9.1-2.7l-15.5-17.1h0l-12.8-14.1c-3.1-3.5-5.6-7.3-7.4-11.4.3-6,2-11.9,4.7-17.1,4.1,2.8,9.4,3.7,14.5,2.2l1.1-.3c5.9-1.7,10.4-6.3,11.7-12,.2-.7,0-1.4-.5-1.8-4.2-4.1-10.5-5.5-16.4-3.8l-1.1.3c-5.8,1.7-10.2,6.1-11.7,11.7-2.3,3.9-4,8.2-5,12.6,0-.7-.5-2.8-.6-3.2-1.8-13,2.4-26.7,12.4-36.4,3.3.7,6.8-.3,9.5-2.7h0c.2-.2.4-.3.5-.5h.2c1-.3,1.6-.5,4.2-1.8s7-4.6,7.6-7.7c.2-1,0-1.8-.7-2.5-.3-.3-.6-.5-.9-.7,1.1-2.7.6-4.2-.2-5.1v-.3Z"/>
    <rect class="st0" x="160.9" y="60.8" width="275.1" height="38.2"/>
    <g class="st4">
      <text class="st3" transform="translate(160.9 90.2)"><tspan x="0" y="0">BLOMSTER</tspan></text>
    </g>
    <rect class="st0" x="161.8" y="105.4" width="251.2" height="44.6"/>
    <g class="st4">
      <text class="st2" transform="translate(161.8 120.1)"><tspan x="0" y="0">FLOWER SHOP</tspan></text>
    </g>
  </g>
  <g id="OBJECTS1" data-name="OBJECTS">
    <circle class="st9" cx="69.9" cy="-99.5" r="59.9"/>
    <path class="st7" d="M130.8-139.7c-.4.6-.4,1.4,0,2,.3.6,1,1,1.7,1h.3c-.9,1.2-3,3.1-5.2,4.2-2.1,1.1-2.6,1.3-3.2,1.5-.7-.7-1.5-1.4-2.2-2.2s-1.4-1.6-2-2.4c.2-.6.5-1.1,1.8-3.1s3.4-4,4.7-4.8v.5c0,.7.2,1.5.8,1.9s1.4.4,2,0c1.2-.7,2.1-1,2.6-1.1-.1.5-.5,1.3-1.2,2.5M116-127.6c0-1.7.5-3.4,1.7-4.8.5.6,1,1.2,1.6,1.8.5.6,1.1,1.2,1.7,1.7-1.5,1-3.2,1.5-4.9,1.3h0ZM83.2-109.6c-5.3-2.3-7.7-2.7-10.5-3.3-1.2-.2-2.5-.4-4.1-.9,2.6-4,4.8-8.8,2.4-14.7-1.5-3.7-1.8-7.4-1.3-10.2v-.3c.3-1.4.8-2.5,1.4-3.2.5-.5,1-.7,1.7-.6,2.1.3,5.4,3.1,8.1,8.7.7,1.5,1.4,3.2,2,5,.5,1.3.7,2.4,1,3.5.7,2.7,1.4,5.1,4.2,10,.9,1.5,1.6,3.2,2,4.8-1.8-2-3.8-3.8-6-5.5-.5-.4-1.3-.3-1.7.2-.4.5-.3,1.3.2,1.7,2.6,2,5,4.3,7.1,6.9-2-.3-4.3-1-6.8-2.1h.3ZM64.7-114.9c-.3,0-.6-.2-.9-.3-5.8-2.2-8.8-5.3-9.4-7.3-.4-1.2.6-1.9.7-2,1.8-1.6,6.5-2.5,12.7-1.4,1.1,4.1-.9,7.6-3.1,11ZM57.6-138.2c1.2-1.4,4.4-1.3,8.1.2-.3,2.5,0,5.3.7,8-2.6-.3-5.1-.3-7.2,0-2.2-3.6-2.9-6.8-1.6-8.2ZM120.8-104.8l1.1-.3c1.4-.4,2.8-.6,4.2-.5-1.6,3.4-4.8,6.1-8.7,7.2-1.9.5-3.4.9-5,.9,1.5-3.4,4.6-6.1,8.4-7.3ZM124.9-94.9l-1.1.3c-3.3.9-6.7.6-9.5-.7,1.2-.2,2.4-.5,3.7-.8,2.5-.7,4.7-2,6.5-3.6,1.7-1.6,3.1-3.5,3.9-5.6,1.9.4,3.6,1.2,5.1,2.4-1.3,3.8-4.6,6.9-8.8,8.1h.2ZM71.2-88.9c-2-.5-3.7-1.9-4.6-3.9h0v-.2l-.2-.4c-.9-2-1-4.2-.2-6,2,.5,3.7,1.9,4.6,3.9l.3.6c.9,2,1,4.2.2,6h-.1ZM80.6-79.3c-1.5,1.5-3.5,2.3-5.6,2.1h-.7c-2.2-.2-4.1-1.3-5.3-3,1.4-1.4,3.5-2.2,5.7-2,0,0,1.1,0,1.3,0h0c1.9.3,3.5,1.3,4.6,2.7h0ZM51.2-102.1c-2.4.5-5,0-7-1.8l-.6-.5c-2-1.7-3.2-4.1-3.2-6.5,2.4-.5,5,0,7,1.8l.6.5c2,1.7,3.2,4.1,3.2,6.5ZM56.3-89c-.2,0-.4,0-.6,0-2.1.5-4.3,0-5.9-1.2.9-1.8,2.7-3.1,4.9-3.6h.6c2.1-.5,4,.3,5.8,1.4-1,1.7-2.7,2.9-4.8,3.4h0ZM92.4-143.3c-.6-.3-1.3-.6-2.1-1,2.4-2.3,4.6-5.4,4-9.9-.6-4.5,1-8.2,2.4-9.2.3-.2.5-.2.9,0,1.2.5,3,3,3.9,7.2.2,1.1.4,2.5.5,3.8,0,1,0,1.8,0,2.6,0,2,0,3.9,1.2,8,.2.6.3,1.2.4,1.7-.7-1.1-1.5-2.2-2.3-3.3-.4-.5-1.2-.6-1.7-.2-.5.4-.6,1.1-.2,1.7,1.2,1.6,2.3,3.2,3.2,5-1-.5-2.1-1.3-3.3-2.2-3.4-2.6-5-3.4-7-4.3h0ZM86.8-146.3s0,0-.2,0c-3.6-2.5-5.2-5.1-5.1-6.4,0-.3,0-.5.3-.6h.2c1.2-.9,4.6-.8,8.6,1,0,2.6-1.7,4.4-3.7,6.2h-.1ZM86.4-162.9c.7-.5,2.5-.2,4.8,1.3-.5,1.5-.8,3.1-.8,4.9-1.4-.5-2.8-.9-4.2-1.1-.8-2.7-.5-4.6.3-5.2h-.1ZM135.1-145c-.8-.9-2.3-1.6-5-.6-.2-.4-.4-.8-.7-1.1-.6-.7-1.5-1-2.4-.9-3.1.3-7,4.8-8.3,6.8-1.6,2.5-1.9,3.1-2.2,4.1v.2c-.2.2-.4.3-.6.5-2.6,2.4-4,5.9-3.6,9.2-.9.9-1.8,1.8-2.6,2.8-.3-3.8-1.3-7.3-2.3-10,.6-2.7.4-5.8-.4-8.8-1-3.6-1-5.1-1-7s0-1.7,0-2.8c0-1.6-.3-3.1-.6-4.3-1.1-5.1-3.4-8.9-6.2-10-1.5-.6-3.1-.5-4.4.4-.6.4-1.1.9-1.6,1.5-3.3-2.1-6.5-2.6-8.7-1.1-2.3,1.5-3,4.6-2.1,8.4-.9.2-1.7.5-2.4.9-1.4.9-2.1,2.3-2.1,3.9,0,3,2.5,6.6,6.8,9.6.5.4,1.1.7,1.6,1q.3.2,0,0c2.1,1.3,3.5,1.9,4.7,2.5,1.8.8,3.2,1.5,6.2,3.8,2.5,2,4.8,3.2,6.9,3.8,1.2,3.5,2.4,8.3,1.9,13.3-3.8,5.8-6.2,12.4-7.1,19.1-1.1-2.2-2.3-4.4-3.7-6.4,0-3.8-1.3-7.8-3.4-11.3-2.6-4.5-3.1-6.6-3.8-9.2-.3-1.1-.6-2.2-1.1-3.7-.7-2-1.4-3.9-2.2-5.5-3.1-6.2-7.2-10.3-11-10.8-2-.3-3.8.4-5.1,1.9-.7.8-1.3,1.8-1.7,3-5.1-1.9-9.5-1.6-11.8,1-2.4,2.7-2.2,7,.5,11.8-1.4.5-2.5,1.3-3.3,2.2-1.3,1.5-1.8,3.3-1.3,5.3.9,3.8,5.3,7.5,11.8,10,.8.3,1.6.6,2.4.8h0c3.2,1,5.2,1.3,7,1.7,2.7.5,4.8.9,9.7,3,4,1.8,7.4,2.6,10.5,2.6,3.4,5,5.6,10.8,6.6,16.8,0,.3.2,1.4.2,1.5.6,3.5,1.6,6.9,3,10.1,0,0,1.2,2.6,1.8,3.8,1.8,3.3,3.9,6.4,6.5,9.2l.6.7-26.5-19c-1.5-2.7-4.1-4.7-7.4-5.3l-2.3-1.7c1.3-2.9,1.2-6.3-.2-9.3l-.3-.6c-1.7-3.6-5.2-6-9-6.3-.7,0-1.3.3-1.7.8-1.2,1.8-1.8,3.8-1.8,6l-6.7-4.8c.2-3.8-1.5-7.6-4.6-10.1l-.6-.5c-3.4-2.8-8-3.6-12-2.1-.6.2-1.1.8-1.2,1.5-.7,4.2,1,8.5,4.5,11.3l.6.5c3.1,2.6,7.3,3.5,10.9,2.4l1.4,1h-.3c-3.9.8-7,3.6-8.2,7.2-.2.6,0,1.4.4,1.9,2.6,2.8,6.6,4.1,10.4,3.2.2,0,.5,0,.7,0,2.8-.6,5.3-2.3,6.8-4.5,1.5,2.2,3.7,3.8,6.1,4.5-2,.8-3.7,2.1-5,3.9-.4.6-.4,1.3-.2,1.9,1.6,3.5,5.1,5.8,9.1,6.1h.7c3.2.3,6.3-.9,8.6-3.1l40,28.8,15.4,17c.7.8,1.9.9,2.7.1.8-.7.8-1.9.1-2.7l-15.5-17.1h0l-12.8-14.1c-3.1-3.5-5.6-7.3-7.4-11.4.3-6,2-11.9,4.7-17.1,4.1,2.8,9.4,3.7,14.5,2.2l1.1-.3c5.9-1.7,10.4-6.3,11.7-12,.2-.7,0-1.4-.5-1.8-4.2-4.1-10.5-5.5-16.4-3.8l-1.1.3c-5.8,1.7-10.2,6.1-11.7,11.7-2.3,3.9-4,8.2-5,12.6,0-.7-.5-2.8-.6-3.2-1.8-13,2.4-26.7,12.4-36.4,3.3.7,6.8-.3,9.5-2.7h0c.2-.2.4-.3.5-.5h.2c1-.3,1.6-.5,4.2-1.8s7-4.6,7.6-7.7c.2-1,0-1.8-.7-2.5-.3-.3-.6-.5-.9-.7,1.1-2.7.6-4.2-.2-5.1v-.3Z"/>
    <rect class="st0" x="159.9" y="-126.2" width="275.1" height="38.2"/>
    <g class="st4">
      <text class="st5" transform="translate(159.9 -96.8)"><tspan x="0" y="0">BLOMSTER</tspan></text>
    </g>
    <rect class="st0" x="160.8" y="-81.6" width="251.2" height="44.6"/>
    <g class="st4">
      <text class="st6" transform="translate(160.8 -66.9)"><tspan x="0" y="0">FLOWER SHOP</tspan></text>
    </g>
  </g>
  <rect class="st8" x="-289" y="-311" width="96" height="78"/>
</svg>